<svg xmlns="http://www.w3.org/2000/svg" width="448" height="448" viewBox="0 0 448 448">
  <path id="logo" d="M368,96H320V56a24,24,0,0,0-24-24H24A24,24,0,0,0,0,56V456a24,24,0,0,0,24,24H296a24,24,0,0,0,24-24V413.89l80.606-35.977A80.088,80.088,0,0,0,448,304.86V176A80.091,80.091,0,0,0,368,96Zm16,208.86a16.018,16.018,0,0,1-9.479,14.611L320,343.8V160h48a16.019,16.019,0,0,1,16,16ZM208,384a16,16,0,0,1-16-16V144a16,16,0,0,1,32,0V368A16,16,0,0,1,208,384Zm-96,0a16,16,0,0,1-16-16V144a16,16,0,0,1,32,0V368A16,16,0,0,1,112,384Z" transform="translate(0 -32)" fill="rgba(246,183,41,0.6)"/>
</svg>
